# xmcd CD database file
#
# Track frame offsets:
#	150
#	10108
#	33953
#	55395
#	78579
#	91176
#	105121
#	134766
#	152511
#	172151
#	184993
#	200168
#	223583
#	264328
#	285035
#	308355
#
# Disc length: 4430 seconds
#
# Revision: 0
# Processed by: cddbd v1.5.2PL0 Copyright (c) Steve Scherf et al.
# Submitted via: CDex 1.70beta2
#
DISCID=cf114c10
DTITLE=Glenn Kaiser - Blues Heaven II
DYEAR=2006
DGENRE=Blues
TTITLE0=I've Been Redeemed
TTITLE1=Got a Hold on You
TTITLE2=Useless Man
TTITLE3=Do Lord
TTITLE4=God Don't Lie
TTITLE5=Nobody's Fault but Mine
TTITLE6=Where Would I Be
TTITLE7=We Shall See the King
TTITLE8=Winter Sun
TTITLE9=This Little Light
TTITLE10=Full Time Love
TTITLE11=Gonna Meet You at the Station
TTITLE12=If I Leave This World Tomorrow
TTITLE13=Ripley County Blues
TTITLE14=Crossroads
TTITLE15=I Will Do My Last Singing in This Land
EXTD=YEAR: 2006
EXTT0=
EXTT1=
EXTT2=
EXTT3=
EXTT4=
EXTT5=
EXTT6=
EXTT7=
EXTT8=
EXTT9=
EXTT10=
EXTT11=
EXTT12=
EXTT13=
EXTT14=
EXTT15=
PLAYORDER=
